<?xml version="1.0" encoding="UTF-8" standalone="no"?>
<!-- Created with Inkscape (http://www.inkscape.org/) -->

<svg
   width="103.72573mm"
   height="103.72287mm"
   viewBox="0 0 103.72573 103.72287"
   version="1.1"
   id="svg1"
   inkscape:version="1.3.2 (091e20ef0f, 2023-11-25, custom)"
   sodipodi:docname="lubelogger.svg"
   xmlns:inkscape="http://www.inkscape.org/namespaces/inkscape"
   xmlns:sodipodi="http://sodipodi.sourceforge.net/DTD/sodipodi-0.dtd"
   xmlns="http://www.w3.org/2000/svg"
   xmlns:svg="http://www.w3.org/2000/svg">
  <sodipodi:namedview
     id="namedview1"
     pagecolor="#ffffff"
     bordercolor="#666666"
     borderopacity="1.0"
     inkscape:showpageshadow="2"
     inkscape:pageopacity="0.0"
     inkscape:pagecheckerboard="0"
     inkscape:deskcolor="#d1d1d1"
     inkscape:document-units="mm"
     inkscape:zoom="1.4324916"
     inkscape:cx="225.13221"
     inkscape:cy="233.16018"
     inkscape:window-width="1920"
     inkscape:window-height="988"
     inkscape:window-x="1366"
     inkscape:window-y="20"
     inkscape:window-maximized="1"
     inkscape:current-layer="layer1" />
  <defs
     id="defs1" />
  <g
     inkscape:label="Layer 1"
     inkscape:groupmode="layer"
     id="layer1"
     transform="translate(-5.8208332,-40.745833)">
    <path
       id="path0"
       d="m 45.631364,41.566041 c -0.06958,0.451115 -0.486833,2.058459 -0.9271,3.571875 -1.697831,5.835915 -1.658408,5.773209 -4.300802,6.818577 -3.196696,1.264709 -2.585508,1.434571 -10.664296,-2.966243 -3.355181,-1.827742 -4.066116,-1.982259 -5.308071,-1.153584 -1.020497,0.680509 -11.062758,10.905331 -11.368616,11.574992 -0.577056,1.263121 -0.557213,1.316566 2.717006,7.369175 2.804319,5.183716 2.789502,5.088466 1.310481,8.401843 -0.863335,1.934369 -1.546754,2.488142 -3.8608,3.129227 -0.669395,0.185473 -1.899179,0.549011 -2.733145,0.807773 -1.6883066,0.523875 -4.0018232,1.10199 -4.4095461,1.10199 H 5.8208332 v 10.5283 10.528564 l 0.238125,0.0526 c 0.1309687,0.0288 0.93345,0.17119 1.7832916,0.31591 0.9271,0.15796 2.2820312,0.49425 3.3866662,0.84032 1.012825,0.31724 2.255309,0.70062 2.761192,0.8517 1.731698,0.51726 2.183077,1.06997 3.150923,3.85894 1.11416,3.20993 1.294342,2.57757 -2.939785,10.32881 -2.533915,4.63841 -2.592123,4.34207 1.69836,8.65716 9.678987,9.73508 8.75665,9.20724 12.4841,7.14217 6.235964,-3.45467 6.338623,-3.50864 7.300912,-3.83117 1.480344,-0.49662 2.6797,-0.2884 5.113867,0.88715 1.853141,0.89508 2.307166,1.46341 2.96201,3.70866 0.212196,0.72761 0.60034,2.06111 0.862013,2.96334 1.870339,6.44313 2.144977,7.00352 3.576108,7.30064 1.058333,0.21987 15.562791,0.0934 16.170804,-0.14076 1.060185,-0.40851 1.612635,-1.2573 2.255837,-3.46683 0.21008,-0.72152 0.599017,-2.02618 0.864659,-2.8993 0.265641,-0.87313 0.618331,-2.08757 0.784225,-2.69875 0.942181,-3.47451 1.769268,-4.34102 5.293518,-5.54514 1.993371,-0.68104 2.637896,-0.56489 5.430838,0.98001 8.324056,4.60428 7.937235,4.47543 9.661789,3.21866 0.894027,-0.6514 10.626725,-10.45686 10.96989,-11.05165 0.764644,-1.32503 0.722314,-1.44356 -2.763838,-7.71022 -2.773891,-4.98607 -2.841625,-5.5237 -1.142735,-9.0506 1.072356,-2.2262 1.014412,-2.19498 7.638257,-4.12565 6.6884,-1.949448 6.17564,-0.99483 6.17564,-11.498789 0,-9.665494 0.2839,-8.974402 -4.23333,-10.302611 -0.72761,-0.214047 -2.25161,-0.667808 -3.38667,-1.008327 -1.13506,-0.340783 -2.492376,-0.718873 -3.016251,-0.840316 -1.94945,-0.451379 -2.679436,-1.063361 -3.613944,-3.029215 -1.380067,-2.903802 -1.302808,-3.878527 0.577321,-7.274454 0.521229,-0.941652 1.458648,-2.634456 2.083064,-3.761581 1.83224,-3.307821 1.98464,-3.817938 1.459442,-4.882621 -0.360098,-0.729985 -10.908771,-11.30935 -11.607271,-11.641137 -1.197504,-0.56859 -1.66317,-0.423069 -5.713412,1.787789 -1.694921,0.925248 -3.766344,2.032529 -4.602692,2.460361 l -1.520825,0.778404 -1.019175,-0.0071 C 73.96427,52.63806 73.860818,52.613454 72.288928,52.015495 69.489107,50.950018 69.022118,50.372962 68.22387,46.99 68.079672,46.378812 67.790218,45.312541 67.580403,44.620656 67.370853,43.92877 67.118705,42.773864 67.020545,42.054198 L 66.842216,40.745833 H 56.300158 45.757835 l -0.126471,0.820208 m 13.731875,3.261519 c 1.330854,0.395288 1.559983,0.818621 2.800614,5.17869 1.780117,6.254749 1.840971,6.350529 4.542102,7.137399 1.937544,0.564357 2.912004,0.944298 5.049044,1.9685 3.477419,1.666346 3.267869,1.693334 8.255,-1.059127 6.033558,-3.330045 5.934869,-3.334279 9.313862,0.399521 2.585773,2.856971 2.586832,2.889779 0.252942,7.226565 -3.388783,6.297348 -3.353594,6.130131 -1.891506,8.986308 0.818091,1.598612 1.599141,3.449108 2.289175,5.424223 0.93636,2.681023 1.276085,2.967302 4.496593,3.789627 1.039548,0.265641 2.723621,0.746389 3.742267,1.068652 4.529928,1.432719 4.392088,1.252008 4.392088,5.751248 0,4.090458 -0.16114,4.445 -2.32834,5.123127 -1.709471,0.534987 -4.371179,1.325562 -5.54249,1.646237 -3.128433,0.856456 -3.677443,1.355461 -4.567237,4.14946 -0.588169,1.84759 -1.589088,4.32567 -2.407973,5.96159 -1.213908,2.42491 -1.195123,2.51249 1.673225,7.8322 3.007519,5.57768 3.012281,5.31257 -0.151871,8.47645 -2.110316,2.11059 -2.490258,2.37094 -3.459956,2.37094 -0.757237,0 -1.233223,-0.23178 -7.292446,-3.54992 -2.626518,-1.43827 -3.323431,-1.44436 -5.961062,-0.0511 -1.352815,0.71464 -3.692261,1.68804 -5.468938,2.27541 -2.983706,0.9869 -3.262841,1.38854 -4.756943,6.84848 -1.107811,4.04786 -1.507331,4.894 -2.578629,5.45888 l -0.549011,0.28946 -2.69875,0.0349 c -4.486275,0.0579 -4.941093,-0.23548 -5.874279,-3.79201 -0.206375,-0.78581 -0.563298,-2.00025 -0.79375,-2.69875 -0.230187,-0.6985 -0.538956,-1.78329 -0.686329,-2.41088 -0.55245,-2.35532 -1.043252,-2.87152 -3.493558,-3.67427 -1.753659,-0.57441 -4.161102,-1.56448 -5.425811,-2.2315 -2.788179,-1.47055 -3.493558,-1.4814 -6.057106,-0.0921 -8.199702,4.44315 -7.595658,4.35345 -10.656623,1.583 -3.628495,-3.28374 -3.650456,-3.45625 -1.04087,-8.14969 3.537214,-6.36191 3.448843,-5.88857 1.766358,-9.44748 -1.009915,-2.13625 -1.27344,-2.83845 -2.251869,-6.00419 -0.59981,-1.940984 -1.285875,-2.422791 -4.803246,-3.373439 -0.873125,-0.235743 -1.87325,-0.528108 -2.2225,-0.649287 -0.34925,-0.121444 -1.29831,-0.385498 -2.108993,-0.58711 -3.0141336,-0.7493 -3.1609773,-1.011238 -3.1096482,-5.552017 0.051594,-4.560623 -0.5458354,-4.075112 8.1290582,-6.608498 3.14669,-0.918898 3.69914,-1.445948 4.751652,-4.533371 0.530754,-1.557337 1.232958,-3.160448 2.269596,-5.180541 1.235075,-2.407179 1.209146,-2.532592 -1.550458,-7.528719 -2.853002,-5.165196 -2.875757,-5.376333 -0.819944,-7.667096 3.221566,-3.590131 4.420923,-4.034631 6.884987,-2.550848 1.140619,0.686859 4.705086,2.6162 6.064515,3.282686 1.823773,0.894291 2.156354,0.856721 5.153818,-0.58129 1.209411,-0.580496 2.852209,-1.262327 3.96875,-1.647296 3.334544,-1.150143 3.830902,-1.583531 4.549511,-3.971924 0.157691,-0.523875 0.493183,-1.61925 0.745596,-2.434167 0.252412,-0.814917 0.608012,-2.042583 0.790045,-2.728383 0.645848,-2.431257 1.158082,-3.131609 2.568311,-3.511286 0.833966,-0.224631 5.342466,-0.222779 6.101027,0.0026 m -4.224073,16.171069 c -1.753923,0.381793 -1.96559,0.729191 -3.842015,6.31137 -1.297781,3.8608 -3.329516,9.850173 -6.300258,18.57375 -0.991129,2.910417 -2.620698,7.696729 -3.621352,10.63625 -1.000654,2.939521 -2.220383,6.511387 -2.710392,7.937497 -3.957108,11.51467 -4.001822,11.73374 -2.488935,12.17454 0.608806,0.17727 20.154106,0.0889 20.693856,-0.0934 1.075002,-0.36354 1.582473,-1.18798 2.653506,-4.31059 0.377825,-1.10146 0.881592,-2.55032 1.119452,-3.21972 0.939271,-2.64213 0.372798,-3.46577 -2.328862,-3.38614 -3.548856,0.10478 -3.771106,0.0667 -4.312444,-0.73633 -0.571235,-0.84773 -0.648229,-0.58923 5.648854,-19.002107 0.37809,-1.105958 0.944827,-2.772833 1.259152,-3.704167 0.314325,-0.931333 1.31445,-3.884083 2.222236,-6.561666 1.56845,-4.62571 1.959239,-5.766594 3.589073,-10.473002 1.121568,-3.238765 0.931598,-3.862123 -1.274498,-4.18121 -1.060715,-0.153194 -9.575006,-0.124619 -10.307373,0.03493"
       stroke="none"
       fill="#f2bd1d"
       fill-rule="evenodd"
       sodipodi:nodetypes="ccccccccccscccccccccccccsccccsccccccscsccccccsccccscccccccccccccccccccsccccccscccccccccccccccscccccccccccccccsccccsssccccccccscccc"
       style="stroke-width:0.264583" />
  </g>
</svg>
