<svg xmlns="http://www.w3.org/2000/svg" width="48" height="48" viewBox="0 0 48 48" aria-labelledby="ludwig"><title>ludwig</title><path fill="currentColor" d="M31.3383905,8 C32.9593337,8 33.5471269,8.16877384 34.1397195,8.48569583 C34.7323121,8.80261781 35.1973822,9.26768795 35.5143042,9.86028054 L35.6199739,10.0709217 C35.8686017,10.6054771 36,11.2313655 36,12.6616095 L36.0001597,18.0906884 C36.7606666,18.1879274 37.2165105,18.3621045 37.6746493,18.6071198 C38.4153901,19.0032723 38.9967277,19.5846099 39.3928802,20.3253507 C39.7890327,21.0660914 40,21.8008329 40,23.8270118 L40,34.1729882 C40,36.1991671 39.7890327,36.9339086 39.3928802,37.6746493 C38.9967277,38.4153901 38.4153901,38.9967277 37.6746493,39.3928802 C36.9339086,39.7890327 36.1991671,40 34.1729882,40 L13.8270118,40 C11.8008329,40 11.0660914,39.7890327 10.3253507,39.3928802 C9.58460993,38.9967277 9.00327226,38.4153901 8.60711978,37.6746493 C8.2109673,36.9339086 8,36.1991671 8,34.1729882 L8,23.8270118 C8,21.8008329 8.2109673,21.0660914 8.60711978,20.3253507 C9.00327226,19.5846099 9.58460993,19.0032723 10.3253507,18.6071198 C10.8652913,18.3183564 11.4020444,18.1279863 12.4380977,18.0459949 L12.3800261,17.9290783 C12.1313983,17.3945229 12,16.7686345 12,15.3383905 L12,8 L31.3383905,8 Z M34.6153846,34 L13.3846154,34 C12.6203077,34 12,34.672 12,35.5 C12,36.328 12.6203077,37 13.3846154,37 L13.3846154,37 L34.6153846,37 C35.3796923,37 36,36.328 36,35.5 C36,34.672 35.3796923,34 34.6153846,34 L34.6153846,34 Z M17.3333333,28 C16.2283333,28 15.3333333,28.895 15.3333333,30 C15.3333333,31.105 16.2283333,32 17.3333333,32 C18.4383333,32 19.3333333,31.105 19.3333333,30 C19.3333333,28.895 18.4383333,28 17.3333333,28 Z M24,28 C22.895,28 22,28.895 22,30 C22,31.105 22.895,32 24,32 C25.105,32 26,31.105 26,30 C26,28.895 25.105,28 24,28 Z M30.6666667,28 C29.5616667,28 28.6666667,28.895 28.6666667,30 C28.6666667,31.105 29.5616667,32 30.6666667,32 C31.7716667,32 32.6666667,31.105 32.6666667,30 C32.6666667,28.895 31.7716667,28 30.6666667,28 Z M20.6666667,22 C19.5616667,22 18.6666667,22.895 18.6666667,24 C18.6666667,25.105 19.5616667,26 20.6666667,26 C21.7716667,26 22.6666667,25.105 22.6666667,24 C22.6666667,22.895 21.7716667,22 20.6666667,22 Z M27.3333333,22 C26.2283333,22 25.3333333,22.895 25.3333333,24 C25.3333333,25.105 26.2283333,26 27.3333333,26 C28.4383333,26 29.3333333,25.105 29.3333333,24 C29.3333333,22.895 28.4383333,22 27.3333333,22 Z M34,22 C32.895,22 32,22.895 32,24 C32,25.105 32.895,26 34,26 C35.105,26 36,25.105 36,24 C36,22.895 35.105,22 34,22 Z M14,22 C12.895,22 12,22.895 12,24 C12,25.105 12.895,26 14,26 C15.105,26 16,25.105 16,24 C16,22.895 15.105,22 14,22 Z M31.3383905,9 L13,9 L13,15.3383905 L13.004631,15.7985887 C13.0266127,16.7890195 13.1294202,17.2229333 13.367509,17.6681206 C13.5912312,18.0864447 13.9135553,18.4087688 14.3318794,18.632491 C14.7770667,18.8705798 15.2109805,18.9733873 16.2014113,18.995369 L16.6616095,19 L35,19 L35,12.6616095 L34.995369,12.2014113 C34.9733873,11.2109805 34.8705798,10.7770667 34.632491,10.3318794 C34.4087688,9.91355528 34.0864447,9.59123121 33.6681206,9.36750902 C33.1593351,9.09540755 32.6652742,9 31.3383905,9 Z M32,15 L32,16 L16,16 L16,15 L32,15 Z M32,12 L32,13 L16,13 L16,12 L32,12 Z"></path></svg>